# xmcd
#
# Track frame offsets: 
#        150
#        17100
#        38025
#        50625
#        69600
#        84750
#        106125
#        124875
#
# Disc length: 1805 seconds
#
# Revision: 0
# Processed by: cddbd v1.5.2PL0 Copyright (c) Steve Scherf et al.
# Submitted via: ExactAudioCopyFreeDBPlugin 1.0
#
DISCID=61070b08
DTITLE=Various Artist - Waseda Music Selection 2015
DYEAR=2015
DGENRE=Independent
TTITLE0=こどもランドリー - 透明の夜
TTITLE1=Wanna-Gonna - New Town
TTITLE2=JIV - For You
TTITLE3=usomeku - 午睡
TTITLE4=ninja beats - Hanabi
TTITLE5=ハイとローの気分 - PENGUIN DESTRACTION
TTITLE6=ナツノムジナ - 藍染め
TTITLE7=bua - m.i.l.d.
EXTD=
EXTT0=
EXTT1=
EXTT2=
EXTT3=
EXTT4=
EXTT5=
EXTT6=
EXTT7=
PLAYORDER=
